<?xml version="1.0" encoding="UTF-8"?>
<svg version="1.1" xmlns="http://www.w3.org/2000/svg" width="256" height="256">
<path d="M0 0 C0.85084712 -0.00445784 1.70169425 -0.00891569 2.57832462 -0.01350862 C3.98855727 -0.01323207 3.98855727 -0.01323207 5.42727947 -0.01294994 C6.42184727 -0.01662663 7.41641507 -0.02030332 8.44112128 -0.02409142 C11.795211 -0.03516114 15.14926977 -0.03897765 18.50337505 -0.04278088 C20.8994688 -0.04904298 23.29556156 -0.05568955 25.69165325 -0.0626936 C32.89742825 -0.08194473 40.1032007 -0.09252492 47.30899361 -0.10142139 C50.70089801 -0.10580294 54.09280085 -0.11117008 57.48470402 -0.11641026 C68.75759367 -0.13342292 80.03048235 -0.14791777 91.30338287 -0.155159 C94.22942195 -0.15706894 97.15546101 -0.15898927 100.08150005 -0.16094494 C100.8087675 -0.16142868 101.53603495 -0.16191242 102.28534081 -0.16241082 C114.07036213 -0.17071366 125.85528204 -0.19605464 137.64025906 -0.22852562 C149.7348713 -0.26157854 161.82943196 -0.27960613 173.92408961 -0.28280324 C180.71675955 -0.28496994 187.50928157 -0.29374181 194.30190754 -0.31926441 C200.69009979 -0.34321173 207.07809786 -0.34680819 213.46632862 -0.33650303 C215.81373511 -0.33600577 218.16115439 -0.3423818 220.50852108 -0.35605907 C223.70808214 -0.37366182 226.90667409 -0.36672868 230.10623455 -0.35352612 C231.03969749 -0.36449536 231.97316043 -0.37546461 232.93491012 -0.38676625 C237.14441145 -0.34469973 239.36712757 -0.23406145 243.01041985 2.03970528 C246.42635652 5.71480643 246.08836411 8.22389601 246.1044035 13.17458057 C246.10808018 13.90780102 246.11175687 14.64102147 246.11554497 15.39646071 C246.12660364 17.86610201 246.13042932 20.33570127 246.13423443 22.80536366 C246.14049739 24.5709239 246.14714404 26.33648282 246.15414715 28.10204029 C246.17157149 32.90788484 246.18211265 37.71371943 246.19035268 42.51958776 C246.19549941 45.52040833 246.20157527 48.5212258 246.20786381 51.52204418 C246.22691922 60.90596984 246.24115005 70.28988761 246.24947578 79.6738289 C246.25925284 90.51531812 246.28558313 101.35660342 246.32597667 112.19802076 C246.35610815 120.57174474 246.3709418 128.94541018 246.37425679 137.31918734 C246.37661052 142.32336189 246.38561293 147.32731868 246.41071796 152.3314352 C246.43395206 157.03873315 246.43825077 161.74566924 246.42795658 166.45300961 C246.42745998 168.18119731 246.43381682 169.90940254 246.44751263 171.63753605 C246.46516206 173.99643036 246.45816078 176.35401622 246.44497967 178.71291065 C246.46143354 179.73957402 246.46143354 179.73957402 246.47821981 180.78697807 C246.41487665 185.4798859 245.2535107 187.83140811 241.95723248 191.13422108 C239.68322039 192.27122712 238.43981277 192.26231976 235.91446495 192.26844215 C234.63819427 192.27512892 234.63819427 192.27512892 233.33614033 192.28195077 C232.39598523 192.28176641 231.45583013 192.28158205 230.48718548 192.2813921 C229.49261768 192.28506879 228.49804989 192.28874547 227.47334367 192.29253358 C224.11925395 192.3036033 220.76519518 192.3074198 217.4110899 192.31122303 C215.01499615 192.31748513 212.61890339 192.3241317 210.2228117 192.33113575 C203.01703671 192.35038688 195.81126425 192.36096707 188.60547134 192.36986354 C185.21356694 192.3742451 181.8216641 192.37961223 178.42976093 192.38485241 C167.15687128 192.40186507 155.8839826 192.41635992 144.61108208 192.42360115 C141.685043 192.4255111 138.75900394 192.42743142 135.8329649 192.42938709 C134.74206372 192.4301127 134.74206372 192.4301127 133.62912414 192.43085297 C121.84410282 192.43915581 110.05918291 192.46449679 98.27420589 192.49696777 C86.17959365 192.53002069 74.08503299 192.54804829 61.99037534 192.55124539 C55.1977054 192.55341209 48.40518338 192.56218396 41.61255741 192.58770657 C35.22436516 192.61165388 28.83636709 192.61525035 22.44813633 192.60494518 C20.10072984 192.60444792 17.75331056 192.61082395 15.40594387 192.62450123 C12.20638281 192.64210398 9.00779086 192.63517084 5.8082304 192.62196827 C4.87476746 192.63293752 3.94130453 192.64390676 2.97955483 192.65520841 C-1.2299465 192.61314188 -3.45266262 192.50250361 -7.0959549 190.22873688 C-10.51189157 186.55363573 -10.17389916 184.04454615 -10.18993855 179.09386158 C-10.19545358 177.99403091 -10.19545358 177.99403091 -10.20108002 176.87198144 C-10.21213869 174.40234014 -10.21596437 171.93274088 -10.21976948 169.4630785 C-10.22603244 167.69751825 -10.23267909 165.93195933 -10.2396822 164.16640186 C-10.25710654 159.36055731 -10.2676477 154.55472272 -10.27588773 149.7488544 C-10.28103446 146.74803382 -10.28711032 143.74721636 -10.29339886 140.74639797 C-10.31245427 131.36247231 -10.3266851 121.97855455 -10.33501083 112.59461325 C-10.34478789 101.75312404 -10.37111818 90.91183874 -10.41151172 80.0704214 C-10.4416432 71.69669741 -10.45647685 63.32303197 -10.45979184 54.94925481 C-10.46214557 49.94508026 -10.47114798 44.94112347 -10.49625301 39.93700695 C-10.51948711 35.229709 -10.52378582 30.52277291 -10.51349163 25.81543255 C-10.51299503 24.08724484 -10.51935187 22.35903961 -10.53304768 20.63090611 C-10.55069711 18.27201179 -10.54369583 15.91442593 -10.53051472 13.5555315 C-10.54148396 12.87108926 -10.55245321 12.18664701 -10.56375486 11.48146409 C-10.5004117 6.78855625 -9.33904575 4.43703404 -6.04276752 1.13422108 C-3.76875544 -0.00278496 -2.52534782 0.0061224 0 0 Z " fill="#191919" transform="translate(10.042767524719238,31.865778923034668)"/>
<path d="M0 0 C21.03582758 -0.09027209 42.07149848 -0.16396555 63.10747051 -0.20724869 C72.87469603 -0.2278794 82.64179272 -0.25600974 92.40893555 -0.30175781 C100.92136416 -0.34160998 109.43369948 -0.36742911 117.94621879 -0.37635398 C122.4541334 -0.38157148 126.9617811 -0.39384502 131.46961021 -0.42292023 C135.71231552 -0.45006377 139.95464386 -0.45844719 144.19742775 -0.45243073 C145.7546913 -0.45353144 147.31196741 -0.46149186 148.86915588 -0.4768219 C150.99609379 -0.4967344 153.1216099 -0.49193616 155.24858093 -0.48101807 C156.43861567 -0.48470524 157.62865042 -0.48839241 158.85474682 -0.49219131 C162.64027053 0.10019403 164.28868475 1.34644402 167 4 C171.1766547 12.35330939 168 22.66071618 168 32 C112.56 32 57.12 32 0 32 C0 21.44 0 10.88 0 0 Z " fill="#C97C26" transform="translate(88,32)"/>
<path d="M0 0 C2.45477295 1.94010925 2.45477295 1.94010925 5.04980469 4.51635742 C5.52685349 4.98479065 6.00390228 5.45322388 6.4954071 5.93585205 C8.06455056 7.48235111 9.61856109 9.04308249 11.171875 10.60546875 C12.26041425 11.68877161 13.34947243 12.77155325 14.43902588 13.85383606 C16.71850955 16.12291819 18.99035838 18.39932226 21.25732422 20.6809082 C24.15972881 23.60049641 27.08197551 26.49925522 30.01050949 29.39260387 C32.26362589 31.62373383 34.50490265 33.86646767 36.74289703 36.11275673 C37.81556425 37.18624285 38.89207541 38.25590243 39.97249603 39.3215847 C41.48326332 40.8148844 42.97712104 42.32332566 44.46777344 43.83666992 C45.32095154 44.69080978 46.17412964 45.54494965 47.05316162 46.42497253 C49.28907077 49.38234565 49.81053547 51.32380072 50 55 C48.84765625 57.08984375 48.84765625 57.08984375 47.0625 58.9375 C46.41410156 59.61683594 45.76570313 60.29617187 45.09765625 60.99609375 C42.49721871 63.48031062 39.79854556 65.8231815 37.05566406 68.14794922 C35.22110695 69.80079366 33.68751077 71.45280433 32.11328125 73.34765625 C27.05270614 79.21046824 21.52885362 84.62044597 16.04614258 90.08422852 C14.17085437 91.95409753 12.30104535 93.82932899 10.43164062 95.70507812 C9.23990435 96.89615461 8.04785845 98.0869214 6.85546875 99.27734375 C6.29715866 99.83767807 5.73884857 100.39801239 5.16362 100.97532654 C0.37089382 105.73887737 0.37089382 105.73887737 -3.625 106.5 C-8.7751085 105.73702096 -11.43793635 102.62057804 -15 99 C-15.53496094 98.47535156 -16.06992187 97.95070313 -16.62109375 97.41015625 C-18.74028687 95.14688201 -19.92589105 93.34674197 -20.57617188 90.30419922 C-19.68432146 85.18966384 -16.44171351 82.69873704 -12.78125 79.1953125 C-12.04878052 78.4713327 -11.31631104 77.74735291 -10.56164551 77.00143433 C-8.22147606 74.69482139 -5.86130705 72.40994995 -3.5 70.125 C-1.90879264 68.56388869 -0.31893148 67.00140394 1.26953125 65.4375 C5.16421318 61.60893246 9.07552003 57.79800411 13 54 C11.67562375 51.04995503 10.25690684 49.02895194 7.92724609 46.79541016 C7.30675385 46.19443512 6.6862616 45.59346008 6.04696655 44.97427368 C5.37920197 44.33565399 4.71143738 43.6970343 4.0234375 43.0390625 C2.61660963 41.66725904 1.21037757 40.29484434 -0.1953125 38.921875 C-2.41223472 36.76694394 -4.63335985 34.61698635 -6.86523438 32.47753906 C-9.02006793 30.4073393 -11.1555802 28.31872908 -13.2890625 26.2265625 C-13.96087555 25.59199127 -14.6326886 24.95742004 -15.32485962 24.30361938 C-19.87816215 19.80153376 -19.87816215 19.80153376 -20.50415039 15.68334961 C-19.91049072 12.52358521 -19.02890741 11.23897209 -16.8125 8.9375 C-16.17441406 8.26460937 -15.53632812 7.59171875 -14.87890625 6.8984375 C-14.25886719 6.27195312 -13.63882813 5.64546875 -13 5 C-12.27103516 4.21496094 -12.27103516 4.21496094 -11.52734375 3.4140625 C-7.82169546 -0.50689868 -5.21230132 -1.6754258 0 0 Z " fill="#40D663" transform="translate(52,91)"/>
<path d="M0 0 C0.80008484 -0.00014603 1.60016968 -0.00029205 2.42449951 -0.0004425 C5.075833 0.00025559 7.72709671 0.00804318 10.37841797 0.01586914 C12.21401938 0.01773369 14.0496213 0.01915742 15.88522339 0.02015686 C20.72183602 0.02397916 25.55841874 0.033807 30.39501953 0.04486084 C35.32828364 0.05508113 40.26155258 0.05965581 45.19482422 0.06469727 C54.87843325 0.07542951 64.56201219 0.093024 74.24560547 0.11352539 C74.24560547 10.67352539 74.24560547 21.23352539 74.24560547 32.11352539 C45.20560547 32.11352539 16.16560547 32.11352539 -13.75439453 32.11352539 C-13.75439453 6.11352539 -13.75439453 6.11352539 -9.75439453 1.11352539 C-6.65923018 -0.43405678 -3.39583379 -0.01607351 0 0 Z " fill="#AA0C33" transform="translate(13.75439453125,31.886474609375)"/>
<path d="M0 0 C10.08356879 -0.09039506 20.16686815 -0.16377007 30.25075054 -0.20724869 C34.93318939 -0.22811702 39.61533648 -0.25642081 44.29760742 -0.30175781 C48.81690651 -0.3452426 53.33592509 -0.36914278 57.85541725 -0.37950897 C59.57901233 -0.38689563 61.30259218 -0.40132019 63.02606773 -0.42292023 C65.4417873 -0.45198994 67.85635025 -0.45595463 70.2722168 -0.45410156 C70.98359802 -0.46848267 71.69497925 -0.48286377 72.42791748 -0.49768066 C77.22186061 -0.45793225 79.63452092 0.60683807 83 4 C87.1766547 12.35330939 84 22.66071618 84 32 C56.28 32 28.56 32 0 32 C0 21.44 0 10.88 0 0 Z " fill="#D4D442" transform="translate(172,32)"/>
<path d="M0 0 C1.13459656 -0.00788544 1.13459656 -0.00788544 2.29211426 -0.01593018 C4.79391086 -0.02914054 7.29507186 -0.02038873 9.796875 -0.01025391 C11.53418093 -0.01227435 13.27148604 -0.01518554 15.00878906 -0.01895142 C18.65047274 -0.02337616 22.29193572 -0.01693894 25.93359375 -0.00292969 C30.60460984 0.01416237 35.27510884 0.00432198 39.94610596 -0.01364708 C43.53373113 -0.0244809 47.12123345 -0.02104044 50.7088623 -0.0132637 C52.43127503 -0.01126058 54.15369887 -0.01372491 55.87609863 -0.02070236 C58.28228355 -0.02831036 60.6876278 -0.01672253 63.09375 0 C64.16453796 -0.00910904 64.16453796 -0.00910904 65.25695801 -0.0184021 C68.17035696 0.01916245 70.08565213 0.05497307 72.48843384 1.79086304 C73.8307257 3.81654993 73.93392093 5.0916606 73.9453125 7.51318359 C73.94917969 8.30208984 73.95304687 9.09099609 73.95703125 9.90380859 C73.94542969 10.72365234 73.93382812 11.54349609 73.921875 12.38818359 C73.93347656 13.20802734 73.94507813 14.02787109 73.95703125 14.87255859 C73.95316406 15.66146484 73.94929688 16.45037109 73.9453125 17.26318359 C73.94192871 17.98248047 73.93854492 18.70177734 73.93505859 19.44287109 C73.40506255 22.09885128 72.7538883 22.79372654 70.546875 24.38818359 C67.98180685 24.68413658 65.65920515 24.79819115 63.09375 24.77636719 C61.95915344 24.78425262 61.95915344 24.78425262 60.80163574 24.79229736 C58.29983914 24.80550773 55.79867814 24.79675592 53.296875 24.78662109 C51.55956907 24.78864154 49.82226396 24.79155273 48.08496094 24.7953186 C44.44327726 24.79974335 40.80181428 24.79330613 37.16015625 24.77929688 C32.48914016 24.76220481 27.81864116 24.7720452 23.14764404 24.79001427 C19.56001887 24.80084809 15.97251655 24.79740763 12.3848877 24.78963089 C10.66247497 24.78762777 8.94005113 24.79009209 7.21765137 24.79706955 C4.81146645 24.80467755 2.4061222 24.79308972 0 24.77636719 C-1.07078796 24.78547623 -1.07078796 24.78547623 -2.16320801 24.79476929 C-5.07660696 24.75720474 -6.99190213 24.72139412 -9.39468384 22.98550415 C-10.7369757 20.95981726 -10.84017093 19.68470659 -10.8515625 17.26318359 C-10.85542969 16.47427734 -10.85929687 15.68537109 -10.86328125 14.87255859 C-10.85167969 14.05271484 -10.84007813 13.23287109 -10.828125 12.38818359 C-10.83972656 11.56833984 -10.85132812 10.74849609 -10.86328125 9.90380859 C-10.85748047 8.72044922 -10.85748047 8.72044922 -10.8515625 7.51318359 C-10.84817871 6.79388672 -10.84479492 6.07458984 -10.84130859 5.33349609 C-9.69068985 -0.43262347 -4.92356298 -0.04188404 0 0 Z " fill="#00A6D9" transform="translate(130.453125,175.61181640625)"/>
<path d="M0 0 C1.12147758 0.95148536 2.24157233 1.90460076 3.36108398 2.85839844 C3.9849852 3.38898865 4.60888641 3.91957886 5.25169373 4.46624756 C7.3206593 6.28130768 9.19196174 8.23251925 11.0625 10.25 C14.14674318 13.40037705 16.56769407 15.11353881 21 16 C19.73781519 19.78655444 17.88446901 21.23997458 15 24 C13.96162748 25.03772462 12.92637303 26.078576 11.89379883 27.12207031 C8.85480622 30.17877663 5.81283525 33.23249926 2.76977539 36.28515625 C1.45866895 37.60133246 0.14845542 38.9183987 -1.16088867 40.23632812 C-3.05674903 42.14426704 -4.95577617 44.04900269 -6.85546875 45.953125 C-7.44192673 46.54474426 -8.0283847 47.13636353 -8.63261414 47.74591064 C-13.62389576 52.73788491 -13.62389576 52.73788491 -17.625 53.5 C-22.7751085 52.73702096 -25.43793635 49.62057804 -29 46 C-29.53496094 45.47535156 -30.06992187 44.95070312 -30.62109375 44.41015625 C-32.73225327 42.1554618 -33.92427554 40.34433316 -34.58984375 37.31787109 C-33.66619277 32.12233432 -30.28060062 29.53984296 -26.5625 25.9765625 C-25.80783447 25.23038666 -25.05316895 24.48421082 -24.27563477 23.71542358 C-21.86414425 21.33749524 -19.43262956 18.98127976 -17 16.625 C-15.36061556 15.01571085 -13.72257729 13.40504912 -12.0859375 11.79296875 C-8.07277112 7.8459244 -4.04296528 3.91650313 0 0 Z " fill="#2E9B47" transform="translate(66,144)"/>
</svg>
